PathFileType	4	(X/Y/Z)	\\Move.snu.ac.kr\motion\Animal\091204_091205_Bird\091205_bird\Project 2\Capture day 2\Session 1\pigeon_008.trc
DataRate	CameraRate	NumFrames	NumMarkers	Units	OrigDataRate	OrigDataStartFrame	OrigNumFrames
240.0	240.0	26	14	mm	240.0	1	3164
Frame#	Time	14MarkersBird:Head			14MarkersBird:C_back			14MarkersBird:Spine			14MarkersBird:L-shoulder			14MarkersBird:L-elbow			14MarkersBird:L-wrist			14MarkersBird:L-hand			14MarkersBird:R-shoulder			14MarkersBird:R-elbow			14MarkersBird:R-Wrist			14MarkersBird:R-hand			14MarkersBird:C_Tail			14MarkersBird:L-Tale			14MarkersBird:R-Tale			
		X1	Y1	Z1	X2	Y2	Z2	X3	Y3	Z3	X4	Y4	Z4	X5	Y5	Z5	X6	Y6	Z6	X7	Y7	Z7	X8	Y8	Z8	X9	Y9	Z9	X10	Y10	Z10	X11	Y11	Z11	X12	Y12	Z12	X13	Y13	Z13	X14	Y14	Z14	

2045	8.517	-504.19705	685.97772	1770.50793	-551.22534	650.22107	1799.73853	-593.96313	600.30890	1821.45178	-545.99463	657.31531	1761.87219	-580.36115	663.58112	1803.55688	-563.91620	706.87994	1770.02930	-585.18359	723.65564	1771.24585	-525.04779	667.08734	1801.81616	-546.09991	675.69727	1804.68433	-550.50531	712.87103	1811.30725	-577.23987	735.81000	1830.47424	-641.29413	519.70184	1878.86218	-651.24298	541.94623	1777.00635	-546.14142	550.24634	1917.28333	
2046	8.521	-505.18262	684.41223	1771.76685	-551.70490	647.49664	1800.17163	-595.97369	598.46747	1820.44397	-545.95404	654.42902	1762.46814	-578.32471	662.49152	1799.13489	-567.35162	702.41534	1760.49316	-586.16534	722.34735	1759.60657	-522.70142	663.27069	1804.26453	-547.93787	673.14203	1806.93665	-545.11749	710.49249	1818.46497	-572.70001	737.44299	1833.76062	-645.56403	519.51239	1877.88733	-652.32483	540.15881	1776.18127	-547.15442	548.94891	1917.99194	
2047	8.525	-506.04065	682.88635	1772.90637	-552.53052	644.84106	1800.55151	-597.95355	596.70306	1819.44446	-545.82837	651.44141	1762.86963	-575.93091	661.35565	1792.09338	-570.58789	695.60468	1750.45959	-587.90833	716.63153	1744.11084	-521.44250	659.30518	1806.53284	-548.96552	670.09125	1810.20959	-537.94940	706.20178	1827.44019	-562.05811	735.99194	1843.74756	-650.13226	519.28595	1876.14319	-653.65833	538.75842	1775.51526	-549.25604	546.71680	1918.29797	
2048	8.529	-506.77124	681.34912	1773.95459	-553.71082	642.28711	1800.83606	-599.89825	595.00928	1818.45508	-545.48676	648.49255	1762.81531	-574.10278	659.23956	1783.21619	-571.89368	687.15265	1741.00867	-587.39410	707.17865	1728.14014	-520.28247	655.54950	1808.16357	-548.16284	666.90350	1814.79651	-529.41028	699.98743	1836.33398	-547.25946	730.29639	1857.34729	-654.71606	519.06958	1874.19727	-655.30896	537.85651	1774.97241	-552.72296	543.76642	1918.44141	
2049	8.533	-507.40720	679.81049	1774.93018	-555.20703	639.85474	1801.04163	-601.80347	593.38013	1817.47693	-544.97314	645.76324	1762.25781	-573.19629	655.51978	1774.08423	-570.33136	677.75031	1732.61743	-582.75366	695.38239	1713.91992	-519.62482	652.00189	1809.17346	-545.53882	663.37421	1820.66284	-519.94910	691.98242	1843.73291	-529.17847	720.33112	1870.40820	-659.02771	518.72461	1872.40503	-657.13531	537.40552	1774.39746	-557.40222	540.35120	1918.44092	
2050	8.538	-507.97412	678.31415	1775.85657	-556.94720	637.57397	1801.25513	-603.66461	591.80945	1816.51208	-544.50128	643.36786	1761.48450	-572.69861	650.40375	1766.00085	-565.72394	667.78503	1725.68335	-574.03644	682.24353	1702.58252	-519.56836	648.84497	1809.71240	-541.71045	659.23907	1826.93506	-510.29050	682.49084	1848.72583	-509.02457	706.79852	1879.24353	-662.78693	517.88269	1870.75342	-658.81537	537.11731	1773.48352	-562.74249	536.66321	1918.09131	
2051	8.542	-508.49728	676.84387	1776.73096	-558.94507	635.53851	1801.58826	-605.47742	590.29108	1815.56201	-544.35187	641.32263	1760.99622	-571.96515	644.52393	1759.49109	-558.56360	657.51459	1720.87378	-562.13141	668.14337	1694.94519	-520.22815	646.28284	1810.12219	-537.32141	654.43835	1832.46692	-501.30640	672.11981	1850.59814	-488.98352	691.13232	1881.33130	-665.69232	515.99915	1868.88293	-660.02161	536.59064	1771.85742	-567.93896	532.72076	1917.10229	
2052	8.546	-508.96198	675.35706	1777.53821	-561.30457	633.86743	1802.09595	-607.23743	588.81897	1814.62805	-544.62640	639.77136	1761.01013	-570.79224	638.47180	1754.80493	-549.95105	647.44232	1719.08655	-548.06177	653.55157	1692.05835	-521.65442	644.45093	1810.72791	-533.06384	649.10291	1836.48975	-493.87411	661.83069	1848.94250	-471.55719	675.13177	1875.95813	-667.36804	512.45660	1866.19629	-660.52191	535.56378	1769.22583	-572.17035	528.36700	1915.28796	
2053	8.550	-509.34470	673.80048	1778.27954	-564.04901	632.59814	1802.77441	-608.94019	587.38690	1813.71155	-545.34949	638.85571	1761.50244	-569.41364	632.54498	1752.14197	-541.28491	638.56891	1720.87207	-533.15509	639.77649	1694.90430	-523.77106	643.34082	1811.65405	-529.68152	643.52405	1838.71521	-488.90585	652.71240	1844.07996	-458.80209	660.41644	1864.43494	-667.40155	506.82651	1862.07202	-660.18958	534.14331	1765.53223	-574.83014	523.41870	1912.65991	
2054	8.554	-509.58536	672.10980	1778.97913	-566.97626	631.62042	1803.56592	-610.58130	585.98877	1812.81470	-546.66522	638.42554	1762.52100	-568.24640	626.92664	1751.44128	-534.01404	632.20160	1725.99182	-519.49744	628.83496	1703.43188	-526.36060	642.82477	1812.82935	-527.82709	638.16455	1839.40796	-487.18301	645.74060	1837.24976	-451.95361	648.20038	1849.39453	-665.56427	499.28110	1856.18494	-658.92432	532.67749	1760.92371	-575.81268	518.08661	1909.57300	
2055	8.558	-509.63272	670.21619	1779.67468	-569.69269	630.70874	1804.31531	-612.15619	584.61853	1811.93848	-548.51770	638.24628	1763.97107	-567.87012	621.87634	1752.29041	-529.49097	629.26978	1733.13855	-509.47702	622.54456	1715.90894	-529.15009	642.62354	1814.13330	-527.87054	633.57086	1839.40735	-489.02731	641.42291	1830.38098	-451.18741	639.21045	1834.05652	-662.07483	490.75446	1848.75208	-656.57025	531.35260	1755.66296	-575.53931	512.95184	1906.56567	
2056	8.563	-509.50284	668.07147	1780.38123	-571.73364	629.59216	1804.79822	-613.66064	583.26990	1811.08484	-550.51459	638.09882	1765.51428	-568.83154	617.84131	1753.97510	-528.75085	629.71344	1740.20374	-504.88556	621.56134	1729.23071	-531.79590	642.29846	1815.40100	-529.99426	630.11407	1839.72717	-494.05261	639.70239	1825.42676	-455.58817	633.66718	1821.50916	-657.67810	482.59924	1840.54834	-653.00562	529.99664	1750.09656	-574.77765	508.54294	1904.01697	
2057	8.567	-509.23239	665.65369	1781.07959	-572.74811	628.06677	1804.81531	-615.09021	581.93683	1810.25476	-552.23798	637.64673	1766.93054	-571.43518	615.34937	1756.02808	-532.07971	632.48834	1745.30261	-506.19958	624.95319	1740.05713	-533.93341	641.41797	1816.49109	-534.36249	627.78693	1840.88770	-501.26501	640.05530	1823.72241	-463.37329	631.33002	1814.19617	-653.41296	475.89755	1832.65210	-648.54767	528.40662	1744.72290	-574.36414	505.00449	1902.00403	
2058	8.571	-508.85883	662.97675	1781.77319	-572.75110	626.17767	1804.42505	-616.44043	580.61316	1809.45044	-553.42645	636.66876	1768.16089	-575.59119	614.70959	1758.70740	-538.82275	636.38330	1747.92773	-512.46503	630.76721	1746.03687	-535.39978	639.76062	1817.33533	-541.13916	626.35712	1842.50073	-509.60657	641.81323	1825.58447	-472.56912	631.43408	1813.63721	-650.24310	471.03027	1826.00464	-644.10754	526.68152	1740.08252	-574.90314	502.11594	1900.39648	
2059	8.575	-508.47803	660.07104	1782.53052	-572.12738	624.13440	1803.90979	-617.70679	579.29285	1808.67310	-553.97034	635.07135	1769.18604	-580.57281	615.65991	1762.75806	-547.62146	640.78235	1749.28992	-522.03571	637.12189	1746.73718	-536.43939	637.53522	1818.02698	-550.11609	625.55774	1843.23206	-518.55231	644.44446	1830.17358	-482.13007	632.85175	1820.11768	-648.67383	467.69250	1821.01709	-640.83728	525.26825	1736.44885	-576.53992	499.43723	1898.91309	
2060	8.579	-508.24860	656.97510	1783.46265	-571.26917	621.99774	1803.48645	-618.88495	577.96960	1807.92419	-553.89404	632.89679	1769.98328	-585.16357	617.45428	1768.71716	-556.92535	645.49249	1751.63037	-533.70953	642.82617	1743.98230	-537.55499	635.20557	1818.62329	-560.15179	625.22302	1841.54370	-528.22882	647.58716	1835.62732	-492.73788	634.73389	1832.25757	-648.65906	465.32074	1817.44116	-639.39691	524.65271	1733.68396	-578.99792	496.54605	1897.22900	
2061	8.583	-508.37192	653.87683	1784.73083	-570.38922	619.65765	1803.22754	-619.97052	576.63751	1807.20557	-553.35455	630.37439	1770.62378	-588.45929	619.25250	1776.39697	-565.27509	650.27307	1756.73438	-547.26031	647.47180	1741.28967	-539.06281	633.09601	1818.95068	-569.25690	625.19781	1836.83264	-538.90375	650.83398	1839.62952	-506.41971	637.06451	1846.97778	-649.75342	463.40225	1814.57532	-639.33246	524.88708	1731.26929	-581.78857	493.19571	1895.17212	
2062	8.587	-508.91547	650.95978	1786.38623	-569.59387	617.00562	1803.15308	-620.95911	575.29022	1806.51868	-552.58557	627.79266	1771.29895	-590.32227	620.52777	1784.83533	-571.43524	654.64471	1764.85229	-562.32300	651.38489	1742.38269	-540.85693	631.16791	1818.79895	-575.42035	625.36029	1830.02979	-550.13800	653.71899	1840.44690	-524.70453	640.67310	1859.89270	-651.45880	461.55136	1811.69592	-639.44360	525.58899	1728.67688	-584.50970	489.44141	1892.93677	
2063	8.592	-509.77844	648.30389	1788.32227	-568.93579	614.00818	1803.25391	-621.84607	573.92181	1805.86487	-551.76666	625.35229	1772.19250	-591.42413	621.17413	1792.72656	-574.70734	658.13922	1774.49792	-577.06171	655.57416	1749.27820	-542.58539	629.13654	1818.27954	-577.83557	625.58643	1823.01392	-560.53070	656.05286	1837.85571	-546.93347	646.39276	1866.82666	-653.51556	459.56088	1808.43445	-638.76959	526.24426	1725.69934	-586.96704	485.51971	1890.93201	
2064	8.596	-510.84363	645.90466	1790.37085	-568.45459	610.72467	1803.52808	-622.62720	572.52594	1805.24585	-551.06836	623.09589	1773.43359	-592.21503	621.09998	1798.93506	-575.32312	660.67566	1783.06995	-588.63977	661.04163	1760.80530	-543.91193	626.57153	1817.80188	-577.20532	625.71661	1817.56042	-568.45026	657.98297	1833.47058	-569.86041	654.17267	1865.80859	-655.96979	457.50739	1804.87561	-637.19897	526.38300	1722.53162	-589.08057	481.62265	1889.41003	
2065	8.600	-512.03412	643.72943	1792.39636	-568.17334	607.25537	1803.95520	-623.29803	571.09662	1804.66309	-550.64246	620.86938	1774.98022	-592.38135	620.19189	1802.90210	-574.38770	662.32349	1787.77393	-595.06195	667.58234	1772.86157	-544.61920	623.25323	1817.99231	-574.88263	625.61877	1814.69385	-572.85950	659.43683	1830.27148	-588.96655	662.92749	1858.74438	-658.85461	455.56311	1801.36035	-635.29865	525.60767	1719.57214	-590.74530	477.79517	1888.26917	
2066	8.604	-513.28760	641.75793	1794.31873	-568.10638	603.71765	1804.51257	-623.85413	569.62769	1804.11841	-550.54822	618.49023	1776.54834	-591.50482	618.86853	1804.58862	-573.37415	662.90100	1786.88892	-596.43219	673.61871	1780.12854	-544.61566	619.29517	1819.35083	-572.20038	625.17792	1814.67493	-573.83734	659.70825	1831.33582	-600.57452	670.88824	1851.25220	-661.94757	453.82614	1798.25500	-633.70850	523.56439	1717.20129	-591.83948	474.01221	1887.18604	
2067	8.608	-514.54547	639.94995	1796.11121	-568.26923	600.23547	1805.17468	-624.29108	568.11310	1803.61304	-550.65308	615.83783	1777.78723	-589.48267	617.72797	1803.93127	-573.09222	661.74414	1780.67542	-594.94580	677.31494	1778.75330	-544.02509	614.96851	1821.92456	-570.27753	624.12622	1817.25024	-572.57172	657.61310	1837.95764	-603.86688	675.96375	1850.18640	-664.76788	452.19427	1795.80151	-632.63593	520.06018	1715.52661	-592.37732	470.26556	1885.86804	
2068	8.613	-515.71790	638.18292	1797.75842	-568.67719	596.93225	1805.91748	-624.60431	566.54651	1803.14856	-550.64929	612.90717	1778.52002	-586.37378	616.94348	1800.73999	-572.88525	658.16650	1771.06055	-592.82593	677.29791	1768.67822	-543.17902	610.47784	1825.09241	-569.58691	621.97028	1821.92346	-570.23596	652.15350	1848.86121	-601.02869	675.86865	1858.95581	-666.93896	450.49207	1794.07703	-632.02661	515.44177	1714.47180	-592.73181	466.64175	1884.25049	
2069	8.617	-516.72827	636.35791	1799.28320	-569.34564	593.93207	1806.71570	-624.78961	564.92188	1802.72656	-550.22626	609.76324	1778.80981	-582.71497	616.14777	1794.93762	-571.20306	652.14362	1760.40967	-589.59979	672.88416	1753.35791	-542.41705	605.99023	1827.98059	-569.69092	618.30823	1828.11133	-567.00006	643.18842	1861.41138	-594.68622	668.95691	1875.39673	-668.47913	448.68497	1792.99329	-631.83447	510.57892	1713.80981	-593.58008	463.28183	1882.46802	
2070	8.621	-517.55450	634.45587	1800.72180	-570.28955	591.35199	1807.54663	-624.84253	563.23315	1802.34888	-549.26044	606.52936	1778.90393	-579.14221	614.47168	1787.24817	-566.90338	644.19073	1750.50403	-582.90338	664.44067	1737.05798	-541.90277	601.69598	1830.12720	-569.68707	613.15552	1835.14111	-562.32513	631.49097	1873.18958	-585.31238	655.43170	1894.43677	-669.80829	446.97504	1792.33521	-632.08710	506.44006	1713.29077	-595.56543	460.27106	1880.68787	
